# xmcd CD database file
#
# Track frame offsets:
#	150
#	17252
#	36468
#	48539
#	69262
#	85765
#	107786
#	121574
#	135849
#	163402
#	180489
#	197052
#	220941
#	238130
#	254272
#	272787
#	297268
#	314841
#
# Disc length: 4390 seconds
#
# Revision: 0
# Processed by: cddbd v1.5.1PL2 Copyright (c) Steve Scherf et al.
# Submitted via: CDex 1.51
#
DISCID=04112412
DTITLE=Various Artist - Deep Heat The 3rd Attack CD 2
DYEAR=1999
DGENRE=Mix
TTITLE0=Pulsedriver - Kiss that Sound
TTITLE1=Green Court - Moonflight
TTITLE2=Paffendorf - Allnight
TTITLE3=CJ - Dream a Dream
TTITLE4=SQ1 - Can you Feel 
TTITLE5=Secret Diary - Love Machnie
TTITLE6=Cartoons - Witch Doctor
TTITLE7=Dr. Bombay - Girlie Girlie
TTITLE8=La Bouche - S.O.S.
TTITLE9=Mofgan - Never gonna make
TTITLE10=DJ. Piero - Dont sotp the music
TTITLE11=Gigi D´Agostino - Gin Lemon
TTITLE12=Warmduscher - Auf die Fresse 
TTITLE13=Killerloop - Chi Mai 99
TTITLE14=Brooklyn Bounce - The Dark Side returns
TTITLE15=Ray Krebbs - Fuck that 
TTITLE16=Mr. Ozio - Flat Beat 
TTITLE17=A Klana - A Klana Indianer
EXTD=YEAR: 1999
EXTT0=
EXTT1=
EXTT2=
EXTT3=
EXTT4=
EXTT5=
EXTT6=
EXTT7=
EXTT8=
EXTT9=
EXTT10=
EXTT11=
EXTT12=
EXTT13=
EXTT14=
EXTT15=
EXTT16=
EXTT17=
PLAYORDER=
